{"title":"Meant to Be 2011 R5 XVID AC3 - Xtreme Encode","uid":7002310,"size":1539634944,"categoryP":"video","categoryS":"movies","magnet":"?xt=urn:btih:90d7a76ee7ea929e8dcc860ff127076594f7ed53&amp;dn=Meant+to+Be+2011+R5+XVID+AC3+-+Xtreme+Encode&amp;tr=udp%3A%2F%2Ftracker.openbittorrent.com%3A80&amp;tr=udp%3A%2F%2Fopen.demonii.com%3A1337&amp;tr=udp%3A%2F%2Ftracker.coppersurfer.tk%3A6969&amp;tr=udp%3A%2F%2Fexodus.desync.com%3A6969","seeders":0,"leechers":0,"uploader":"crazy-torrent","files":2,"time":1328105152,"description":" &lt;a href=&quot; http://www.scenespeeds.com/&quot; rel=&quot;nofollow&quot; target=&quot;_NEW&quot;&gt; http://www.scenespeeds.com/&lt;/a&gt;\n\nDescription\n\nGeneral\n\n\nComplete name : Meant to Be 2011 R5 XVID AC3 - Xtreme Encode.avi\nFormat : AVI\nFormat/Info : Audio Video Interleave\nFormat profile : OpenDML\nFormat settings : rec\nFile size : 1.43 GiB\nDuration : 1h 42mn\nOverall bit rate : 2 004 Kbps\n\n\n\n\n\nVideo\n\n\nID : 0\nFormat : MPEG-4 Visual\nFormat profile : Advanced Simple@L5\nFormat settings, BVOP : 1\nFormat settings, QPel : No\nFormat settings, GMC : No warppoints\nFormat settings, Matrix : Default (H.263)\nCodec ID : XVID\nCodec ID/Hint : XviD\nDuration : 1h 42mn\nBit rate : 1 742 Kbps\nWidth : 720 pixels\nHeight : 384 pixels\nDisplay aspect ratio : 1.875\nFrame rate : 25.000 fps\nColor space : YUV\nChroma subsampling : 4:2:0\nBit depth : 8 bits\nScan type : Progressive\nCompression mode : Lossy\nBits/(Pixel*Frame) : 0.252\nStream size : 1.25 GiB (87%)\n\n\n\n\nAudio\n\n\nID : 1\nFormat : AC-3\nFormat/Info : Audio Coding 3\nMode extension : CM (complete main)\nCodec ID : 2000\nDuration : 1h 42mn\nBit rate mode : Constant\nBit rate : 256 Kbps\nChannel(s) : 6 channels\nChannel positions : Front: L C R, Side: L R, LFE\nSampling rate : 48.0 KHz\nBit depth : 16 bits\nCompression mode : Lossy\nStream size : 188 MiB (13%)\nAlignment : Aligned on interleaves\nInterleave, duration : 64 ms (1.60 video frames)\nInterleave, preload duration : 192 ms\n\n\n\n\n\n\nSOURCE\nVideo : DVD.ELEKTRI4KA\nAudio : DVD.ELEKTRI4KA\n\n\n\nJUST A LITTLE MESS WITH THIS ADDES BIT OF CONTRAS\nRESIZED BIT TWEAKED BIT SHARPEN in\nSAT HUE and few othere things\n\n\nLANGAUGE: ENGLISH\n\nSUBTITLES: NONE\n\n\n\n\nPLOT\n\nA delightful romantic comedy about about a guardian angel\nwho falls for the young woman he is protecting.\n\n\n\n\n\nGenres: Comedy | Romance\n\n\nDirector: Paul Breuls\n\nWriter: Kara Holden\n\nStars: Kelly Reilly, Julian Rhind-Tutt and Santiago Cabrera\n\n\nIMDB: http://www.imdb.com/title/tt1290140/\n     &lt;a href=&quot;\nhttp://www.scenespeeds.com/&quot; rel=&quot;nofollow&quot; target=&quot;_NEW&quot;&gt;\nhttp://www.scenespeeds.com/&lt;/a&gt;\t","torrent":{"xt":"urn:btih:90d7a76ee7ea929e8dcc860ff127076594f7ed53","amp;dn":"Meant+to+Be+2011+R5+XVID+AC3+-+Xtreme+Encode","amp;tr":["udp%3A%2F%2Ftracker.openbittorrent.com%3A80","udp%3A%2F%2Fopen.demonii.com%3A1337","udp%3A%2F%2Ftracker.coppersurfer.tk%3A6969","udp%3A%2F%2Fexodus.desync.com%3A6969"],"infoHash":"90d7a76ee7ea929e8dcc860ff127076594f7ed53","infoHashBuffer":{"type":"Buffer","data":[144,215,167,110,231,234,146,158,141,204,134,15,241,39,7,101,148,247,237,83]},"announce":[],"urlList":[]}}